{"title":"Madagascar (2005) 1080p BluRay {1920x1080p} {Dual Audio} {6Ch.} ","uid":9772363,"size":2507949197,"categoryP":"video","categoryS":"hd___movies","magnet":"?xt=urn:btih:511f07df0ae9803113cbcc0d7b1b1ca013127d08&amp;dn=Madagascar+%282005%29+1080p+BluRay+%7B1920x1080p%7D+%7BDual+Audio%7D+%7B6Ch.%7D+&amp;tr=udp%3A%2F%2Ftracker.openbittorrent.com%3A80&amp;tr=udp%3A%2F%2Fopen.demonii.com%3A1337&amp;tr=udp%3A%2F%2Ftracker.coppersurfer.tk%3A6969&amp;tr=udp%3A%2F%2Fexodus.desync.com%3A6969","seeders":2,"leechers":3,"uploader":"SaNRiM","files":-1,"time":1394971166,"description":"Storyline\n\nAt New York's Central Park Zoo, a lion, a zebra, a giraffe, and a hippo are best friends and stars of the show. But when one of the animals goes missing from their cage, the other three break free to look for him, only to find themselves reunited ... on a ship en route to Africa. When their vessel is hijacked, however, the friends, who have all been raised in captivity, learn first-hand what life can be like in the wild.\n\n\n\ntorrent Info\n\nGeneral\n\nUnique ID : 234071357261604604505101956490513043717 (0xB01880EC6944ADE7B6D64AF369575105)\nComplete name : Madagascar (2005) 1080p BluRay {1920x1080p} {Dual Audio} {6Ch.} [Hindi DD 5.1-English DD 5.1] ~SaNRiM~.mkv\nFormat : Matroska\nFormat version : Version 4 / Version 2\nFile size : 2.32 GiB\nDuration : 1h 25mn\nOverall bit rate : 3 873 Kbps\nEncoded date : UTC 2014-03-13 00:54:58\nWriting library : libebml v1.3.0 + libmatroska v1.4.1\n\n\nVideo\n\nID : 1\nFormat : AVC\nFormat/Info : Advanced Video Codec\nFormat profile : &lt;a class=&quot;__cf_email__&quot; href=&quot;/cdn-cgi/l/email-protection&quot; data-cfemail=&quot;c981a0aea18985fde7f8&quot;&gt;[email&amp;#160;protected]&lt;/a&gt;&lt;script cf-hash='f9e31' type=&quot;text/javascript&quot;&gt;\n/* &lt;![CDATA[ */!function(){try{var t=&quot;currentScript&quot;in document?document.currentScript:function(){for(var t=document.getElementsByTagName(&quot;script&quot;),e=t.length;e--;)if(t[e].getAttribute(&quot;cf-hash&quot;))return t[e]}();if(t&amp;&amp;t.previousSibling){var e,r,n,i,c=t.previousSibling,a=c.getAttribute(&quot;data-cfemail&quot;);if(a){for(e=&quot;&quot;,r=parseInt(a.substr(0,2),16),n=2;a.length-n;n+=2)i=parseInt(a.substr(n,2),16)^r,e+=String.fromCharCode(i);e=document.createTextNode(e),c.parentNode.replaceChild(e,c)}}}catch(u){}}();/* ]]&gt; */&lt;/script&gt;\nFormat settings, CABAC : Yes\nFormat settings, ReFrames : 4 frames\nCodec ID : V_MPEG4/ISO/AVC\nDuration : 1h 25mn\nBit rate : 3 000 Kbps\nWidth : 1 920 pixels\nHeight : 1 080 pixels\nDisplay aspect ratio : 16:9\nFrame rate mode : Constant\nFrame rate : 23.976 fps\nColor space : YUV\nChroma subsampling : 4:2:0\nBit depth : 8 bits\nScan type : Progressive\nBits/(Pixel*Frame) : 0.060\nStream size : 1.74 GiB (75%)\nTitle : ~SaNRiM~\nWriting library : x264 core 130 r2273 b3065e6\nLanguage : English\nDefault : Yes\nForced : No\nColor primaries : BT.709\nTransfer characteristics : BT.709\nMatrix coefficients : BT.709\n\n\nAudio #1\n\nID : 2\nFormat : AC-3\nFormat/Info : Audio Coding 3\nMode extension : CM (complete main)\nFormat settings, Endianness : Big\nCodec ID : A_AC3\nDuration : 1h 25mn\nBit rate mode : Constant\nBit rate : 448 Kbps\nChannel(s) : 6 channels\nChannel positions : Front: L C R, Side: L R, LFE\nSampling rate : 48.0 KHz\nBit depth : 16 bits\nCompression mode : Lossy\nStream size : 275 MiB (12%)\nTitle : ~SaNRiM~\nLanguage : Hindi\nDefault : Yes\nForced : No\n\n\nAudio #2\n\nID : 3\nFormat : AC-3\nFormat/Info : Audio Coding 3\nMode extension : CM (complete main)\nFormat settings, Endianness : Big\nCodec ID : A_AC3\nDuration : 1h 25mn\nBit rate mode : Constant\nBit rate : 448 Kbps\nChannel(s) : 6 channels\nChannel positions : Front: L C R, Side: L R, LFE\nSampling rate : 48.0 KHz\nBit depth : 16 bits\nCompression mode : Lossy\nStream size : 275 MiB (12%)\nTitle : ~SaNRiM~\nLanguage : English\nDefault : No\nForced : No\n\n\nText\n\nID : 4\nFormat : PGS\nMuxing mode : zlib\nCodec ID : S_HDMV/PGS\nCodec ID/Info : The same subtitle format used on BDs/HD-DVDs\nTitle : ~SaNRiM~\nLanguage : English\nDefault : No\nForced : No\n\n\n\nScreens\n &lt;a href=&quot;\nhttp://someimage.com/Y93ci4N&quot; rel=&quot;nofollow&quot; target=&quot;_NEW&quot;&gt;\nhttp://someimage.com/Y93ci4N&lt;/a&gt; &lt;a href=&quot;\nhttp://someimage.com/StEudaD&quot; rel=&quot;nofollow&quot; target=&quot;_NEW&quot;&gt;\nhttp://someimage.com/StEudaD&lt;/a&gt; &lt;a href=&quot;\nhttp://someimage.com/jQ8NHyo&quot; rel=&quot;nofollow&quot; target=&quot;_NEW&quot;&gt;\nhttp://someimage.com/jQ8NHyo&lt;/a&gt; &lt;a href=&quot;\nhttp://someimage.com/uEzVdXr&quot; rel=&quot;nofollow&quot; target=&quot;_NEW&quot;&gt;\nhttp://someimage.com/uEzVdXr&lt;/a&gt; &lt;a href=&quot;\nhttp://someimage.com/SnudgLN&quot; rel=&quot;nofollow&quot; target=&quot;_NEW&quot;&gt;\nhttp://someimage.com/SnudgLN&lt;/a&gt; &lt;a href=&quot;\nhttp://someimage.com/2n4HvP4&quot; rel=&quot;nofollow&quot; target=&quot;_NEW&quot;&gt;\nhttp://someimage.com/2n4HvP4&lt;/a&gt; &lt;a href=&quot;\nhttp://someimage.com/h9UZtpj&quot; rel=&quot;nofollow&quot; target=&quot;_NEW&quot;&gt;\nhttp://someimage.com/h9UZtpj&lt;/a&gt; &lt;a href=&quot;\nhttp://someimage.com/AmQtge7&quot; rel=&quot;nofollow&quot; target=&quot;_NEW&quot;&gt;\nhttp://someimage.com/AmQtge7&lt;/a&gt; &lt;a href=&quot;\nhttp://someimage.com/OtR2sqM&quot; rel=&quot;nofollow&quot; target=&quot;_NEW&quot;&gt;\nhttp://someimage.com/OtR2sqM&lt;/a&gt; &lt;a href=&quot;\nhttp://someimage.com/vSQVCBE&quot; rel=&quot;nofollow&quot; target=&quot;_NEW&quot;&gt;\nhttp://someimage.com/vSQVCBE&lt;/a&gt; &lt;a href=&quot;\nhttp://someimage.com/CoYowIP&quot; rel=&quot;nofollow&quot; target=&quot;_NEW&quot;&gt;\nhttp://someimage.com/CoYowIP&lt;/a&gt; &lt;a href=&quot;\nhttp://someimage.com/eFSgEO5&quot; rel=&quot;nofollow&quot; target=&quot;_NEW&quot;&gt;\nhttp://someimage.com/eFSgEO5&lt;/a&gt; &lt;a href=&quot;\nhttp://someimage.com/c0qj1P7&quot; rel=&quot;nofollow&quot; target=&quot;_NEW&quot;&gt;\nhttp://someimage.com/c0qj1P7&lt;/a&gt; &lt;a href=&quot;\nhttp://someimage.com/cr7AYji&quot; rel=&quot;nofollow&quot; target=&quot;_NEW&quot;&gt;\nhttp://someimage.com/cr7AYji&lt;/a&gt; &lt;a href=&quot;\nhttp://someimage.com/hzU4Bg5&quot; rel=&quot;nofollow&quot; target=&quot;_NEW&quot;&gt;\nhttp://someimage.com/hzU4Bg5&lt;/a&gt;\n\n\n\n                  If you like my work please comment\n                          Any request? Just PM me\n                       Please seed long after download\n                         Thank you &amp; enjoy the best\n                                 ~SaNRiM~\n\n\n           NOTE: HINDI AUDIO IS REMASTERED","torrent":{"xt":"urn:btih:511f07df0ae9803113cbcc0d7b1b1ca013127d08","amp;dn":"Madagascar+%282005%29+1080p+BluRay+%7B1920x1080p%7D+%7BDual+Audio%7D+%7B6Ch.%7D+","amp;tr":["udp%3A%2F%2Ftracker.openbittorrent.com%3A80","udp%3A%2F%2Fopen.demonii.com%3A1337","udp%3A%2F%2Ftracker.coppersurfer.tk%3A6969","udp%3A%2F%2Fexodus.desync.com%3A6969"],"infoHash":"511f07df0ae9803113cbcc0d7b1b1ca013127d08","infoHashBuffer":{"type":"Buffer","data":[81,31,7,223,10,233,128,49,19,203,204,13,123,27,28,160,19,18,125,8]},"announce":[],"urlList":[]}}